# This file uses centimeters as units for non-parametric coordinates.

mtllib allGrass_001.mtl
g default
v 20.549387 5.312377 2.851027
v 17.953993 3.239642 1.138776
v 16.800249 0.002176 -0.011437
v 20.512985 5.301032 2.923325
v 17.854388 3.208598 1.336604
v 16.652369 -0.043914 0.282270
v 19.242014 4.590998 2.055347
v 19.186528 4.573705 2.165549
v 17.360960 1.922664 0.583963
v 17.222310 1.879451 0.859340
vt 0.000000 0.000000
vt 0.500000 0.000000
vt 1.000000 0.000000
vt 0.000000 0.222222
vt 0.500000 0.222222
vt 1.000000 0.222222
vt 0.250000 0.000000
vt 0.250000 0.222222
vt 0.750000 0.000000
vt 0.750000 0.222222
vn -0.442437 0.892985 -0.082634
vn -0.583292 0.794485 -0.169011
vn -0.583292 0.794485 -0.169011
vn -0.442437 0.892985 -0.082634
vn -0.742592 0.609187 -0.278295
vn -0.837911 0.412768 -0.357111
vn -0.837911 0.412768 -0.357111
vn -0.742592 0.609187 -0.278295
vn -0.853409 0.364638 -0.372467
vn -0.853409 0.364638 -0.372467
s 1
g pPlane3 group2 group3 grassClump_001
usemtl aiStandardSurface1SG
f 1/1/1 7/7/2 8/8/3 4/4/4
f 2/2/5 9/9/6 10/10/7 5/5/8
f 8/8/3 7/7/2 2/2/5 5/5/8
f 10/10/7 9/9/6 3/3/9 6/6/10
