# Blender 3.4.1
# www.blender.org
mtllib Tree2.mtl
o Tree_Spruce_small_02_Cylinder.003
v 0.168402 0.001317 -1.455861
v 0.133944 2.505755 -0.861209
v 1.132866 0.013199 -0.971625
v 0.706879 2.505755 -0.484692
v 1.374207 0.002634 -0.034990
v 0.917007 2.505755 -0.008151
v 1.258883 -0.000000 1.100562
v 0.634729 2.505754 0.500056
v 0.140265 0.006111 1.265281
v 0.139383 2.505754 0.639786
v -0.699263 0.015368 1.032305
v -0.422749 2.505755 0.391709
v -1.377586 -0.000000 0.119078
v -0.602833 2.505755 -0.055587
v -0.875349 0.016969 -0.888853
v -0.403887 2.505755 -0.573216
v 0.133532 0.787547 -1.034621
v 0.885359 0.696909 -0.737739
v 1.152418 0.592623 -0.059089
v 0.884411 0.649809 0.689309
v 0.194599 0.677119 1.029137
v -0.563206 0.801769 0.657641
v -0.780954 1.071762 -0.025304
v -0.615791 0.939868 -0.740178
v -0.053696 7.010739 -0.703305
v 0.406828 7.010739 -0.400661
v 0.575729 7.010738 -0.017618
v 0.348835 7.010738 0.390877
v -0.049324 7.010738 0.503192
v -0.501163 7.010738 0.303789
v -0.645916 7.010738 -0.055748
v -0.486004 7.010739 -0.471816
v 0.111546 9.608961 -0.621290
v 0.513683 9.608961 -0.357016
v 0.661171 9.608961 -0.022536
v 0.463043 9.608961 0.334169
v 0.115364 9.608961 0.432245
v -0.279190 9.608961 0.258122
v -0.405590 9.608961 -0.055831
v -0.265953 9.608961 -0.419150
v 0.088646 11.913836 -0.485993
v 0.394466 11.913836 -0.285017
v 0.506628 11.913836 -0.030648
v 0.355955 11.913836 0.240620
v 0.091551 11.913836 0.315205
v -0.208504 11.913836 0.182787
v -0.304628 11.913836 -0.055969
v -0.198437 11.913836 -0.332268
v 0.159805 13.778689 -0.379706
v 0.389961 13.778689 -0.228454
v 0.474373 13.778689 -0.037022
v 0.360977 13.778689 0.167131
v 0.161991 13.778689 0.223262
v -0.063824 13.778689 0.123607
v -0.136166 13.778689 -0.056078
v -0.056248 13.778689 -0.264015
v 0.208458 16.879791 -0.056409
v -0.050797 4.200456 -5.619022
v -0.162262 9.422034 -1.530091
v 4.134745 5.173689 -4.299761
v 0.961391 9.482012 -1.073235
v 5.435526 4.189953 0.011501
v 1.444510 9.504729 0.038009
v 4.164345 4.962329 4.180883
v 0.868996 9.357809 1.030752
v -0.056864 3.968528 5.620488
v -0.147505 9.459076 1.615877
v -4.117125 4.525089 4.154979
v -1.221210 9.361902 1.104582
v -5.686476 3.994639 0.016554
v -1.750250 9.405951 0.022026
v -4.141747 4.728377 -3.924874
v -1.365021 9.499593 -1.189808
v -0.005199 3.812044 -5.132979
v -0.118587 9.033413 -1.044047
v 3.809351 4.752017 -3.974997
v 0.635141 9.060340 -0.749327
v 4.961496 3.784959 -0.009518
v 0.970404 9.099754 0.018380
v 3.829889 4.550424 3.852787
v 0.533894 8.945923 0.703322
v -0.043554 3.563572 5.146136
v -0.135206 9.054082 1.141543
v -3.764601 4.138391 3.815345
v -0.869431 8.975184 0.764206
v -5.188971 3.618449 0.028549
v -1.252745 9.029781 0.034363
v -3.778599 4.367590 -3.568333
v -1.002197 9.138805 -0.832944
v -0.264475 8.649815 -4.170911
v 0.001081 12.020887 -1.069314
v 2.882343 7.974678 -3.042290
v 0.834736 12.068071 -0.805575
v 4.131308 8.676407 0.038338
v 1.221725 12.084988 0.022617
v 3.019037 7.972018 3.088147
v 0.845079 12.082793 0.869523
v 0.052410 8.602264 4.245027
v 0.003410 12.073994 1.193413
v -3.111824 7.923847 3.101127
v -0.836054 12.125703 0.869611
v -4.324299 8.559284 0.021294
v -1.107922 12.060152 0.021398
v -3.078560 7.965443 -2.950354
v -0.821955 12.103980 -0.801182
v -0.091955 11.064701 -3.399621
v -0.027666 14.326609 -1.019025
v 2.466450 11.651265 -2.371532
v 0.681963 14.334448 -0.684074
v 3.645920 11.309942 0.066255
v 0.991259 14.370051 0.031499
v 2.406128 11.761886 2.492507
v 0.634987 14.282393 0.693757
v 0.098227 11.321449 3.415746
v -0.025589 14.269532 1.000298
v -2.124949 11.719024 2.180507
v -0.786917 14.308460 0.791980
v -3.349316 11.040776 0.126627
v -0.970928 14.201184 0.032556
v -2.307159 11.605619 -2.202535
v -0.747496 14.273708 -0.695487
v -0.006651 14.155711 -2.152608
v 1.670017 13.702122 -1.549501
v 2.110088 14.090506 0.094814
v 1.545324 13.829033 1.593347
v 0.043142 18.245337 0.023820
v -0.005444 14.218731 2.150381
v -1.597578 13.841566 1.697097
v -2.167681 14.279458 0.034942
v -1.708244 13.876595 -1.643656
v 1.139820 15.171146 0.027954
v -1.161362 15.336164 0.019073
v 0.745836 15.296480 -0.695885
v 0.777435 15.276671 0.788248
v -0.928421 15.313161 0.941298
v 0.011242 15.380784 -1.160054
v 0.017206 15.315844 1.258528
v -0.799070 15.402757 -0.749753
v -0.271158 8.253026 -3.689571
v -0.004629 11.624078 -0.587993
v 2.537302 7.583506 -2.700086
v 0.489676 11.676897 -0.463390
v 3.636068 8.297229 0.049875
v 0.726486 11.705812 0.033773
v 2.674223 7.575231 2.752245
v 0.500761 11.685983 0.533126
v 0.043518 8.208275 3.761440
v -0.004568 11.679983 0.709827
v -2.788677 7.508019 2.766710
v -0.512527 11.709873 0.535576
v -3.853867 8.149816 0.035078
v -0.637491 11.650662 0.034992
v -2.753889 7.556717 -2.608759
v -0.496525 11.695233 -0.460330
v -0.067339 10.681373 -2.908076
v -0.005466 13.943150 -0.527461
v 2.148214 11.245051 -2.020990
v 0.362413 13.928138 -0.334826
v 3.186586 10.887888 0.058697
v 0.531908 13.948016 0.024893
v 2.095356 11.348915 2.143144
v 0.322826 13.869362 0.345708
v 0.124596 10.932942 2.928370
v -0.001352 13.880799 0.512980
v -1.758965 11.355610 1.829563
v -0.422436 13.945010 0.439532
v -2.845053 10.673611 0.117622
v -0.466665 13.834022 0.023836
v -1.943422 11.231676 -1.860464
v -0.385719 13.899787 -0.351322
v -0.045605 13.759225 -1.672543
v 1.286861 13.326315 -1.231494
v 1.609119 13.718774 0.093938
v 1.160759 13.459166 1.270143
v 0.021706 17.621927 0.031834
v -0.037735 13.839973 1.655751
v -1.249052 13.464998 1.342288
v -1.688530 13.880040 0.028431
v -1.374113 13.472493 -1.305697
v 0.594757 14.867782 0.033494
v -0.624466 15.019414 0.043176
v 0.319366 15.022339 -0.332395
v 0.350185 15.001006 0.426833
v -0.542141 14.995974 0.568023
v -0.030682 15.060151 -0.626566
v -0.039150 15.010613 0.717387
v -0.407898 15.093451 -0.374954
vn 0.4563 0.1295 -0.8803
vn 0.9203 0.1324 -0.3682
vn 0.9102 0.1316 0.3926
vn 0.3728 0.1740 0.9114
vn -0.4046 0.1762 0.8974
vn -0.9256 0.1276 0.3563
vn -0.9460 0.1364 -0.2941
vn -0.3975 0.1200 -0.9097
vn 0.0271 -0.9996 -0.0033
vn -0.3818 0.3371 -0.8605
vn -0.8581 0.3691 -0.3570
vn -0.7538 0.4348 0.4926
vn -0.2944 0.4019 0.8671
vn 0.2448 0.4739 0.8459
vn 0.8657 0.4734 0.1624
vn 0.8930 0.3710 -0.2547
vn 0.3892 0.4363 -0.8112
vn -0.0008 -0.9997 0.0261
vn -0.0023 -0.9999 -0.0107
vn -0.0059 -1.0000 -0.0029
vn -0.0054 -1.0000 -0.0025
vn -0.0111 -0.9999 0.0002
vn 0.9129 0.0683 -0.4025
vn -0.4037 0.0108 0.9148
vn -0.4720 0.0112 -0.8815
vn 0.5484 0.0521 -0.8346
vn 0.8722 0.0671 0.4845
vn -0.9276 -0.0089 0.3735
vn 0.2713 0.0405 0.9617
vn -0.9334 -0.0089 -0.3587
vn -0.4032 0.0505 0.9137
vn 0.8739 -0.0278 0.4854
vn 0.5492 -0.0085 -0.8357
vn -0.4713 0.0578 -0.8801
vn -0.9242 0.0855 0.3721
vn 0.2715 0.0091 0.9624
vn 0.9146 -0.0308 -0.4033
vn -0.9300 0.0860 -0.3574
vn -0.9327 0.0408 -0.3585
vn -0.4034 0.0422 0.9141
vn 0.8726 0.0602 0.4847
vn 0.5484 0.0544 -0.8345
vn -0.4715 0.0470 -0.8806
vn -0.9269 0.0406 0.3732
vn 0.2711 0.0516 0.9612
vn 0.9134 0.0598 -0.4027
vn -0.9244 0.0835 0.3722
vn 0.2713 0.0372 0.9618
vn 0.9149 0.0144 -0.4034
vn -0.9301 0.0840 -0.3575
vn -0.4030 0.0602 0.9132
vn 0.8741 0.0168 0.4855
vn 0.5490 0.0267 -0.8354
vn -0.4710 0.0681 -0.8795
vn 0.5475 0.0783 -0.8331
vn -0.4697 0.0988 -0.8773
vn -0.9227 0.1026 0.3715
vn 0.2706 0.0824 0.9592
vn 0.9124 0.0757 -0.4023
vn -0.9285 0.1031 -0.3568
vn -0.4022 0.0882 0.9113
vn 0.8716 0.0778 0.4841
vn 0.1325 0.6319 -0.7637
vn 0.7701 0.6217 -0.1432
vn 0.7538 0.6279 0.1936
vn 0.1899 0.6175 0.7633
vn -0.2432 0.5913 0.7689
vn -0.7682 0.5876 0.2540
vn -0.7913 0.5765 -0.2038
vn -0.2300 0.5899 -0.7740
vn -0.1115 -0.6290 0.7694
vn -0.7758 -0.6190 0.1225
vn -0.7589 -0.6266 -0.1774
vn -0.1739 -0.6157 -0.7685
vn 0.2306 -0.5908 -0.7731
vn 0.7705 -0.5873 -0.2479
vn 0.7966 -0.5752 0.1858
vn 0.2135 -0.5891 0.7793
vn 0.3566 -0.7196 -0.5959
vn -0.2844 0.7256 0.6266
vn 0.6067 -0.7146 -0.3482
vn -0.6452 0.7194 0.2572
vn 0.6014 -0.7320 0.3201
vn -0.6326 0.7330 -0.2502
vn 0.3735 -0.7206 0.5841
vn -0.2885 0.7263 -0.6239
vn -0.3183 -0.7471 0.5835
vn 0.2330 0.7474 -0.6222
vn -0.5641 -0.7635 0.3143
vn 0.5897 0.7662 -0.2552
vn -0.5155 -0.7797 -0.3554
vn 0.5659 0.7857 0.2496
vn -0.3285 -0.7793 -0.5336
vn 0.2231 0.7794 0.5854
vn 0.3469 0.5990 -0.7217
vn 0.7045 0.5846 -0.4023
vn 0.7105 0.5929 0.3790
vn 0.3730 0.6008 0.7071
vn -0.3567 0.5978 0.7179
vn -0.7090 0.6087 0.3562
vn -0.7021 0.6075 -0.3715
vn -0.3841 0.6122 -0.6911
vn 0.2156 0.5932 -0.7757
vn 0.7196 0.6362 -0.2781
vn 0.7027 0.6513 0.2863
vn 0.2081 0.6413 0.7386
vn -0.2824 0.5845 0.7607
vn -0.7875 0.5697 0.2352
vn -0.7873 0.5816 -0.2047
vn -0.2971 0.5791 -0.7592
vn 0.4336 0.5870 -0.6837
vn 0.7250 0.6084 -0.3229
vn 0.7177 0.6095 0.3367
vn 0.4175 0.5856 0.6948
vn -0.3156 0.5711 0.7578
vn -0.7357 0.5894 0.3337
vn -0.7042 0.6321 -0.3233
vn -0.3272 0.6069 -0.7243
vn -0.4153 0.3514 -0.8391
vn -0.2960 0.3732 0.8793
vn 0.8576 0.3054 -0.4139
vn -0.8980 0.3714 0.2361
vn 0.8737 0.3122 0.3731
vn -0.8570 0.3554 -0.3731
vn 0.5088 0.3305 0.7949
vn 0.5322 0.3183 -0.7845
vn -0.3542 -0.5984 0.7186
vn -0.6953 -0.5836 0.4195
vn -0.7012 -0.5921 -0.3973
vn -0.3851 -0.6002 -0.7011
vn 0.3691 -0.5973 -0.7120
vn 0.7031 -0.6081 -0.3685
vn 0.6972 -0.6069 0.3816
vn 0.4047 -0.6114 0.6800
vn -0.2005 -0.5921 0.7805
vn -0.7227 -0.6364 0.2698
vn -0.7060 -0.6513 -0.2781
vn -0.1955 -0.6402 -0.7429
vn 0.2662 -0.5848 -0.7663
vn 0.7954 -0.5683 -0.2108
vn 0.7949 -0.5800 0.1781
vn 0.2844 -0.5789 0.7642
vn -0.4568 -0.5819 0.6728
vn -0.7218 -0.6030 0.3399
vn -0.7104 -0.6034 -0.3622
vn -0.4356 -0.5816 -0.6870
vn 0.3323 -0.5654 -0.7549
vn 0.7329 -0.5849 -0.3475
vn 0.7017 -0.6301 0.3326
vn 0.3496 -0.6027 0.7173
vn 0.5275 -0.2216 0.8202
vn 0.2823 -0.2497 -0.9262
vn -0.8205 -0.1704 0.5456
vn 0.9577 -0.2385 -0.1609
vn -0.8615 -0.1795 -0.4749
vn 0.8819 -0.2172 0.4183
vn -0.5900 -0.1921 -0.7842
vn -0.6443 -0.1780 0.7438
vn 0.0732 -0.7360 -0.6730
vn -0.2370 0.7504 0.6171
vn 0.6547 -0.7515 -0.0812
vn -0.5938 0.7638 0.2531
vn 0.6658 -0.7440 0.0556
vn -0.6006 0.7573 -0.2564
vn 0.0932 -0.7363 0.6702
vn -0.2383 0.7482 -0.6192
vn -0.0784 -0.7234 0.6860
vn 0.2741 0.7341 -0.6213
vn -0.6932 -0.7114 0.1153
vn 0.6449 0.7200 -0.2563
vn -0.6814 -0.7198 -0.1325
vn 0.6357 0.7287 0.2548
vn -0.1030 -0.7304 -0.6752
vn 0.2724 0.7381 0.6173
vn 0.3976 -0.7345 -0.5500
vn -0.2885 0.7467 0.5993
vn 0.5821 -0.7103 -0.3956
vn -0.6505 0.7162 0.2527
vn 0.5626 -0.7041 0.4333
vn -0.6537 0.7124 -0.2554
vn 0.3744 -0.7299 0.5719
vn -0.2933 0.7382 -0.6074
vn -0.4277 -0.7632 0.4844
vn 0.2098 0.7746 -0.5967
vn -0.4112 -0.7471 0.5222
vn 0.5581 0.7896 -0.2551
vn -0.4905 -0.7634 -0.4204
vn 0.5697 0.7812 0.2551
vn -0.4592 -0.7535 -0.4706
vn 0.2066 0.7704 0.6032
vn 0.0252 -0.7250 -0.6883
vn 0.6520 -0.7576 0.0318
vn 0.6216 -0.7788 0.0837
vn 0.0212 -0.7428 0.6691
vn 0.0169 -0.7440 0.6679
vn -0.6791 -0.7337 0.0201
vn -0.7048 -0.7093 0.0098
vn -0.0631 -0.7245 -0.6863
vt 0.552430 0.542169
vt 0.552331 0.605999
vt 0.555209 0.542472
vt 0.553982 0.605999
vt 0.555904 0.542202
vt 0.554587 0.605999
vt 0.555572 0.542136
vt 0.553774 0.605999
vt 0.552349 0.542292
vt 0.552347 0.605999
vt 0.549930 0.542527
vt 0.550727 0.605999
vt 0.547976 0.542136
vt 0.550208 0.605999
vt 0.549423 0.542568
vt 0.550781 0.605999
vt 0.552330 0.562208
vt 0.554496 0.559898
vt 0.555265 0.557239
vt 0.554493 0.558697
vt 0.552506 0.559394
vt 0.550322 0.562570
vt 0.549695 0.569451
vt 0.550171 0.566090
vt 0.551790 0.720818
vt 0.553117 0.720818
vt 0.553604 0.720818
vt 0.552950 0.720818
vt 0.551803 0.720818
vt 0.550501 0.720818
vt 0.550084 0.720818
vt 0.550545 0.720818
vt 0.552266 0.787039
vt 0.553425 0.787039
vt 0.553850 0.787039
vt 0.553279 0.787039
vt 0.552277 0.787039
vt 0.551141 0.787039
vt 0.550776 0.787039
vt 0.551179 0.787039
vt 0.552200 0.845784
vt 0.553081 0.845784
vt 0.553405 0.845784
vt 0.552971 0.845784
vt 0.552209 0.845784
vt 0.551344 0.845784
vt 0.551067 0.845784
vt 0.551373 0.845784
vt 0.552405 0.893313
vt 0.553068 0.893313
vt 0.553312 0.893313
vt 0.552985 0.893313
vt 0.552412 0.893313
vt 0.551761 0.893313
vt 0.551553 0.893313
vt 0.551783 0.893313
vt 0.552546 0.972351
vt 0.148796 0.566760
vt 0.148159 0.759077
vt 0.167214 0.571853
vt 0.152567 0.760296
vt 0.174842 0.573963
vt 0.154393 0.760801
vt 0.167214 0.571854
vt 0.152567 0.760296
vt 0.148796 0.566760
vt 0.148159 0.759077
vt 0.130379 0.561667
vt 0.143752 0.757858
vt 0.122750 0.559558
vt 0.141926 0.757353
vt 0.130379 0.561667
vt 0.143752 0.757858
vt 0.148796 0.566760
vt 0.148159 0.759077
vt 0.167214 0.571853
vt 0.152567 0.760296
vt 0.174842 0.573963
vt 0.154393 0.760801
vt 0.167214 0.571854
vt 0.152567 0.760296
vt 0.148796 0.566760
vt 0.148159 0.759077
vt 0.130379 0.561667
vt 0.143752 0.757858
vt 0.122750 0.559558
vt 0.141926 0.757353
vt 0.130379 0.561667
vt 0.143752 0.757858
vt 0.149364 0.573491
vt 0.149797 0.765601
vt 0.167762 0.570032
vt 0.154200 0.764773
vt 0.175383 0.568599
vt 0.156024 0.764430
vt 0.167762 0.570032
vt 0.154200 0.764773
vt 0.149364 0.573491
vt 0.149797 0.765601
vt 0.130967 0.576950
vt 0.145394 0.766429
vt 0.123346 0.578383
vt 0.143570 0.766772
vt 0.130967 0.576950
vt 0.145394 0.766429
vt 0.148793 0.571087
vt 0.147908 0.737340
vt 0.164714 0.578163
vt 0.151718 0.739034
vt 0.171309 0.581095
vt 0.153297 0.739736
vt 0.164714 0.578163
vt 0.151718 0.739034
vt 0.148793 0.571087
vt 0.147908 0.737340
vt 0.132871 0.564010
vt 0.144098 0.735647
vt 0.126277 0.561079
vt 0.142519 0.734945
vt 0.132871 0.564010
vt 0.144098 0.735647
vt 0.148271 0.528774
vt 0.166779 0.520471
vt 0.174446 0.517033
vt 0.166779 0.520471
vt 0.149309 0.959427
vt 0.148271 0.528774
vt 0.129764 0.537075
vt 0.122097 0.540514
vt 0.129763 0.537075
vt 0.161157 0.666667
vt 0.136663 0.681873
vt 0.156765 0.682359
vt 0.156947 0.678951
vt 0.139767 0.673416
vt 0.148761 0.681768
vt 0.148742 0.675983
vt 0.140717 0.688459
vt 0.149364 0.573491
vt 0.149797 0.765601
vt 0.167762 0.570032
vt 0.154200 0.764773
vt 0.175383 0.568599
vt 0.156024 0.764430
vt 0.167762 0.570032
vt 0.154200 0.764773
vt 0.149364 0.573491
vt 0.149797 0.765601
vt 0.130967 0.576950
vt 0.145394 0.766429
vt 0.123346 0.578383
vt 0.143570 0.766772
vt 0.130967 0.576950
vt 0.145394 0.766429
vt 0.148793 0.571087
vt 0.147908 0.737340
vt 0.164714 0.578163
vt 0.151718 0.739034
vt 0.171309 0.581095
vt 0.153297 0.739736
vt 0.164714 0.578163
vt 0.151718 0.739034
vt 0.148793 0.571087
vt 0.147908 0.737340
vt 0.132871 0.564010
vt 0.144098 0.735647
vt 0.126277 0.561079
vt 0.142519 0.734945
vt 0.132871 0.564010
vt 0.144098 0.735647
vt 0.148271 0.528774
vt 0.166779 0.520471
vt 0.174446 0.517033
vt 0.166779 0.520471
vt 0.149309 0.959427
vt 0.148271 0.528774
vt 0.129764 0.537075
vt 0.122097 0.540514
vt 0.129763 0.537075
vt 0.161157 0.666667
vt 0.136663 0.681873
vt 0.156765 0.682359
vt 0.156947 0.678951
vt 0.139767 0.673416
vt 0.148761 0.681768
vt 0.148742 0.675983
vt 0.140717 0.688459
s 0
usemtl AllColors_Material.002
f 17/17/1 2/2/1 4/4/1 18/18/1
f 18/18/2 4/4/2 6/6/2 19/19/2
f 19/19/3 6/6/3 8/8/3 20/20/3
f 20/20/4 8/8/4 10/10/4 21/21/4
f 21/21/5 10/10/5 12/12/5 22/22/5
f 22/22/6 12/12/6 14/14/6 23/23/6
f 23/23/7 14/14/7 16/16/7 24/24/7
f 24/24/8 16/16/8 2/2/8 17/17/8
f 11/11/9 13/13/9 15/15/9
f 15/15/10 24/24/10 17/17/10 1/1/10
f 13/13/11 23/23/11 24/24/11 15/15/11
f 11/11/12 22/22/12 23/23/12 13/13/12
f 9/9/13 21/21/13 22/22/13 11/11/13
f 7/7/14 20/20/14 21/21/14 9/9/14
f 5/5/15 19/19/15 20/20/15 7/7/15
f 3/3/16 18/18/16 19/19/16 5/5/16
f 1/1/17 17/17/17 18/18/17 3/3/17
f 15/15/18 1/1/18 3/3/18
f 3/3/19 5/5/19 15/15/19
f 5/5/20 7/7/20 9/9/20
f 15/15/21 5/5/21 9/9/21
f 9/9/22 11/11/22 15/15/22
f 6/6/23 4/4/23 26/26/23 27/27/23
f 12/12/24 10/10/24 29/29/24 30/30/24
f 2/2/25 16/16/25 32/32/25 25/25/25
f 4/4/26 2/2/26 25/25/26 26/26/26
f 8/8/27 6/6/27 27/27/27 28/28/27
f 14/14/28 12/12/28 30/30/28 31/31/28
f 10/10/29 8/8/29 28/28/29 29/29/29
f 16/16/30 14/14/30 31/31/30 32/32/30
f 30/30/31 29/29/31 37/37/31 38/38/31
f 28/28/32 27/27/32 35/35/32 36/36/32
f 26/26/33 25/25/33 33/33/33 34/34/33
f 25/25/34 32/32/34 40/40/34 33/33/34
f 31/31/35 30/30/35 38/38/35 39/39/35
f 29/29/36 28/28/36 36/36/36 37/37/36
f 27/27/37 26/26/37 34/34/37 35/35/37
f 32/32/38 31/31/38 39/39/38 40/40/38
f 40/40/39 39/39/39 47/47/39 48/48/39
f 38/38/40 37/37/40 45/45/40 46/46/40
f 36/36/41 35/35/41 43/43/41 44/44/41
f 34/34/42 33/33/42 41/41/42 42/42/42
f 33/33/43 40/40/43 48/48/43 41/41/43
f 39/39/44 38/38/44 46/46/44 47/47/44
f 37/37/45 36/36/45 44/44/45 45/45/45
f 35/35/46 34/34/46 42/42/46 43/43/46
f 47/47/47 46/46/47 54/54/47 55/55/47
f 45/45/48 44/44/48 52/52/48 53/53/48
f 43/43/49 42/42/49 50/50/49 51/51/49
f 48/48/50 47/47/50 55/55/50 56/56/50
f 46/46/51 45/45/51 53/53/51 54/54/51
f 44/44/52 43/43/52 51/51/52 52/52/52
f 42/42/53 41/41/53 49/49/53 50/50/53
f 41/41/54 48/48/54 56/56/54 49/49/54
f 50/50/55 49/49/55 57/57/55
f 49/49/56 56/56/56 57/57/56
f 55/55/57 54/54/57 57/57/57
f 53/53/58 52/52/58 57/57/58
f 51/51/59 50/50/59 57/57/59
f 56/56/60 55/55/60 57/57/60
f 54/54/61 53/53/61 57/57/61
f 52/52/62 51/51/62 57/57/62
f 58/58/63 59/59/63 61/61/63 60/60/63
f 60/60/64 61/61/64 63/63/64 62/62/64
f 62/62/65 63/63/65 65/65/65 64/64/65
f 64/64/66 65/65/66 67/67/66 66/66/66
f 66/66/67 67/67/67 69/69/67 68/68/67
f 68/68/68 69/69/68 71/71/68 70/70/68
f 70/70/69 71/71/69 73/73/69 72/72/69
f 72/72/70 73/73/70 59/59/70 58/58/70
f 74/74/71 76/76/71 77/77/71 75/75/71
f 76/76/72 78/78/72 79/79/72 77/77/72
f 78/78/73 80/80/73 81/81/73 79/79/73
f 80/80/74 82/82/74 83/83/74 81/81/74
f 82/82/75 84/84/75 85/85/75 83/83/75
f 84/84/76 86/86/76 87/87/76 85/85/76
f 86/86/77 88/88/77 89/89/77 87/87/77
f 88/88/78 74/74/78 75/75/78 89/89/78
f 58/58/79 60/60/79 76/76/79 74/74/79
f 61/61/80 59/59/80 75/75/80 77/77/80
f 60/60/81 62/62/81 78/78/81 76/76/81
f 63/63/82 61/61/82 77/77/82 79/79/82
f 62/62/83 64/64/83 80/80/83 78/78/83
f 65/65/84 63/63/84 79/79/84 81/81/84
f 64/64/85 66/66/85 82/82/85 80/80/85
f 67/67/86 65/65/86 81/81/86 83/83/86
f 66/66/87 68/68/87 84/84/87 82/82/87
f 69/69/88 67/67/88 83/83/88 85/85/88
f 68/68/89 70/70/89 86/86/89 84/84/89
f 71/71/90 69/69/90 85/85/90 87/87/90
f 70/70/91 72/72/91 88/88/91 86/86/91
f 73/73/92 71/71/92 87/87/92 89/89/92
f 72/72/93 58/58/93 74/74/93 88/88/93
f 59/59/94 73/73/94 89/89/94 75/75/94
f 90/90/95 91/91/95 93/93/95 92/92/95
f 92/92/96 93/93/96 95/95/96 94/94/96
f 94/94/97 95/95/97 97/97/97 96/96/97
f 96/96/98 97/97/98 99/99/98 98/98/98
f 98/98/99 99/99/99 101/101/99 100/100/99
f 100/100/100 101/101/100 103/103/100 102/102/100
f 102/102/101 103/103/101 105/105/101 104/104/101
f 104/104/102 105/105/102 91/91/102 90/90/102
f 106/106/103 107/107/103 109/109/103 108/108/103
f 108/108/104 109/109/104 111/111/104 110/110/104
f 110/110/105 111/111/105 113/113/105 112/112/105
f 112/112/106 113/113/106 115/115/106 114/114/106
f 114/114/107 115/115/107 117/117/107 116/116/107
f 116/116/108 117/117/108 119/119/108 118/118/108
f 118/118/109 119/119/109 121/121/109 120/120/109
f 120/120/110 121/121/110 107/107/110 106/106/110
f 122/122/111 136/136/111 133/133/111 123/123/111
f 123/123/112 133/133/112 131/131/112 124/124/112
f 124/124/113 131/131/113 134/134/113 125/125/113
f 125/125/114 134/134/114 137/137/114 127/127/114
f 127/127/115 137/137/115 135/135/115 128/128/115
f 128/128/116 135/135/116 132/132/116 129/129/116
f 129/129/117 132/132/117 138/138/117 130/130/117
f 130/130/118 138/138/118 136/136/118 122/122/118
f 136/136/119 138/138/119 126/126/119
f 135/135/120 137/137/120 126/126/120
f 131/131/121 133/133/121 126/126/121
f 132/132/122 135/135/122 126/126/122
f 134/134/123 131/131/123 126/126/123
f 138/138/124 132/132/124 126/126/124
f 137/137/125 134/134/125 126/126/125
f 133/133/126 136/136/126 126/126/126
f 139/139/127 141/141/127 142/142/127 140/140/127
f 141/141/128 143/143/128 144/144/128 142/142/128
f 143/143/129 145/145/129 146/146/129 144/144/129
f 145/145/130 147/147/130 148/148/130 146/146/130
f 147/147/131 149/149/131 150/150/131 148/148/131
f 149/149/132 151/151/132 152/152/132 150/150/132
f 151/151/133 153/153/133 154/154/133 152/152/133
f 153/153/134 139/139/134 140/140/134 154/154/134
f 155/155/135 157/157/135 158/158/135 156/156/135
f 157/157/136 159/159/136 160/160/136 158/158/136
f 159/159/137 161/161/137 162/162/137 160/160/137
f 161/161/138 163/163/138 164/164/138 162/162/138
f 163/163/139 165/165/139 166/166/139 164/164/139
f 165/165/140 167/167/140 168/168/140 166/166/140
f 167/167/141 169/169/141 170/170/141 168/168/141
f 169/169/142 155/155/142 156/156/142 170/170/142
f 171/171/143 172/172/143 182/182/143 185/185/143
f 172/172/144 173/173/144 180/180/144 182/182/144
f 173/173/145 174/174/145 183/183/145 180/180/145
f 174/174/146 176/176/146 186/186/146 183/183/146
f 176/176/147 177/177/147 184/184/147 186/186/147
f 177/177/148 178/178/148 181/181/148 184/184/148
f 178/178/149 179/179/149 187/187/149 181/181/149
f 179/179/150 171/171/150 185/185/150 187/187/150
f 185/185/151 175/175/151 187/187/151
f 184/184/152 175/175/152 186/186/152
f 180/180/153 175/175/153 182/182/153
f 181/181/154 175/175/154 184/184/154
f 183/183/155 175/175/155 180/180/155
f 187/187/156 175/175/156 181/181/156
f 186/186/157 175/175/157 183/183/157
f 182/182/158 175/175/158 185/185/158
f 90/90/159 92/92/159 141/141/159 139/139/159
f 93/93/160 91/91/160 140/140/160 142/142/160
f 92/92/161 94/94/161 143/143/161 141/141/161
f 95/95/162 93/93/162 142/142/162 144/144/162
f 94/94/163 96/96/163 145/145/163 143/143/163
f 97/97/164 95/95/164 144/144/164 146/146/164
f 96/96/165 98/98/165 147/147/165 145/145/165
f 99/99/166 97/97/166 146/146/166 148/148/166
f 98/98/167 100/100/167 149/149/167 147/147/167
f 101/101/168 99/99/168 148/148/168 150/150/168
f 100/100/169 102/102/169 151/151/169 149/149/169
f 103/103/170 101/101/170 150/150/170 152/152/170
f 102/102/171 104/104/171 153/153/171 151/151/171
f 105/105/172 103/103/172 152/152/172 154/154/172
f 104/104/173 90/90/173 139/139/173 153/153/173
f 91/91/174 105/105/174 154/154/174 140/140/174
f 106/106/175 108/108/175 157/157/175 155/155/175
f 109/109/176 107/107/176 156/156/176 158/158/176
f 108/108/177 110/110/177 159/159/177 157/157/177
f 111/111/178 109/109/178 158/158/178 160/160/178
f 110/110/179 112/112/179 161/161/179 159/159/179
f 113/113/180 111/111/180 160/160/180 162/162/180
f 112/112/181 114/114/181 163/163/181 161/161/181
f 115/115/182 113/113/182 162/162/182 164/164/182
f 114/114/183 116/116/183 165/165/183 163/163/183
f 117/117/184 115/115/184 164/164/184 166/166/184
f 116/116/185 118/118/185 167/167/185 165/165/185
f 119/119/186 117/117/186 166/166/186 168/168/186
f 118/118/187 120/120/187 169/169/187 167/167/187
f 121/121/188 119/119/188 168/168/188 170/170/188
f 120/120/189 106/106/189 155/155/189 169/169/189
f 107/107/190 121/121/190 170/170/190 156/156/190
f 122/122/191 123/123/191 172/172/191 171/171/191
f 123/123/192 124/124/192 173/173/192 172/172/192
f 124/124/193 125/125/193 174/174/193 173/173/193
f 125/125/194 127/127/194 176/176/194 174/174/194
f 127/127/195 128/128/195 177/177/195 176/176/195
f 128/128/196 129/129/196 178/178/196 177/177/196
f 129/129/197 130/130/197 179/179/197 178/178/197
f 130/130/198 122/122/198 171/171/198 179/179/198
